<svg width="845" height="781" viewBox="0 0 845 781" fill="none" xmlns="http://www.w3.org/2000/svg">
<path fill-rule="evenodd" clip-rule="evenodd" d="M443.699 5.80481C504.398 -2.69388 567.925 -4.3941 624.824 18.4093C682.885 41.6781 730.197 86.1452 768.213 135.86C805.881 185.12 855.661 242.978 842.984 303.704C828.757 371.853 724.322 388.044 701.814 453.918C682.746 509.722 765.543 576.732 732.916 625.839C701.726 672.784 622.572 638.545 568.553 654.491C524.16 667.596 486.857 694.478 443.699 711.215C383.116 734.71 319.201 803.587 261.578 773.541C202.983 742.987 247.225 636.33 204.06 586.259C158.241 533.111 55.4549 551.907 18.8732 492.012C-14.904 436.708 1.67387 358.854 29.3905 300.271C56.41 243.161 122.091 218.012 168.679 175.373C208.528 138.902 239.46 94.2746 285.433 65.9293C334.088 35.9302 387.108 13.7285 443.699 5.80481Z" fill="#EEEFFE"/>
</svg>
