<svg width="152" height="31" viewBox="0 0 152 31" fill="none" xmlns="http://www.w3.org/2000/svg">
<path d="M8.51562 7.09375V24.9219C8.51562 26.7865 8.02083 28.2344 7.03125 29.2656C6.04167 30.3073 4.61458 30.8281 2.75 30.8281C1.96875 30.8281 1.22396 30.7396 0.515625 30.5625V26.9844C1.05729 27.0781 1.53125 27.125 1.9375 27.125C3.30208 27.125 3.98438 26.401 3.98438 24.9531V7.09375H8.51562ZM3.625 2.71875C3.625 2.04167 3.84896 1.48438 4.29688 1.04688C4.75521 0.609375 5.375 0.390625 6.15625 0.390625C6.9375 0.390625 7.55208 0.609375 8 1.04688C8.45833 1.48438 8.6875 2.04167 8.6875 2.71875C8.6875 3.40625 8.45312 3.96875 7.98438 4.40625C7.52604 4.84375 6.91667 5.0625 6.15625 5.0625C5.39583 5.0625 4.78125 4.84375 4.3125 4.40625C3.85417 3.96875 3.625 3.40625 3.625 2.71875ZM20.8281 24.3125C18.349 24.3125 16.3281 23.5521 14.7656 22.0312C13.2135 20.5104 12.4375 18.4844 12.4375 15.9531V15.5156C12.4375 13.8177 12.7656 12.3021 13.4219 10.9688C14.0781 9.625 15.0052 8.59375 16.2031 7.875C17.4115 7.14583 18.7865 6.78125 20.3281 6.78125C22.6406 6.78125 24.4583 7.51042 25.7812 8.96875C27.1146 10.4271 27.7812 12.4948 27.7812 15.1719V17.0156H17.0156C17.1615 18.1198 17.599 19.0052 18.3281 19.6719C19.0677 20.3385 20 20.6719 21.125 20.6719C22.8646 20.6719 24.224 20.0417 25.2031 18.7812L27.4219 21.2656C26.7448 22.224 25.8281 22.974 24.6719 23.5156C23.5156 24.0469 22.2344 24.3125 20.8281 24.3125ZM20.3125 10.4375C19.4167 10.4375 18.6875 10.7396 18.125 11.3438C17.5729 11.9479 17.2188 12.8125 17.0625 13.9375H23.3438V13.5781C23.3229 12.5781 23.0521 11.8073 22.5312 11.2656C22.0104 10.7135 21.2708 10.4375 20.3125 10.4375ZM30.6562 15.4219C30.6562 12.7865 31.2448 10.6875 32.4219 9.125C33.6094 7.5625 35.2292 6.78125 37.2812 6.78125C38.9271 6.78125 40.2865 7.39583 41.3594 8.625V0H45.8906V24H41.8125L41.5938 22.2031C40.4688 23.6094 39.0208 24.3125 37.25 24.3125C35.2604 24.3125 33.6615 23.5312 32.4531 21.9688C31.2552 20.3958 30.6562 18.2135 30.6562 15.4219ZM35.1719 15.75C35.1719 17.3333 35.4479 18.5469 36 19.3906C36.5521 20.2344 37.3542 20.6562 38.4062 20.6562C39.8021 20.6562 40.7865 20.0677 41.3594 18.8906V12.2188C40.7969 11.0417 39.8229 10.4531 38.4375 10.4531C36.2604 10.4531 35.1719 12.2188 35.1719 15.75ZM69.1562 24C68.9479 23.5938 68.7969 23.0885 68.7031 22.4844C67.6094 23.7031 66.1875 24.3125 64.4375 24.3125C62.7812 24.3125 61.4062 23.8333 60.3125 22.875C59.2292 21.9167 58.6875 20.7083 58.6875 19.25C58.6875 17.4583 59.349 16.0833 60.6719 15.125C62.0052 14.1667 63.9271 13.6823 66.4375 13.6719H68.5156V12.7031C68.5156 11.9219 68.3125 11.2969 67.9062 10.8281C67.5104 10.3594 66.8802 10.125 66.0156 10.125C65.2552 10.125 64.6562 10.3073 64.2188 10.6719C63.7917 11.0365 63.5781 11.5365 63.5781 12.1719H59.0625C59.0625 11.1927 59.3646 10.2865 59.9688 9.45312C60.5729 8.61979 61.4271 7.96875 62.5312 7.5C63.6354 7.02083 64.875 6.78125 66.25 6.78125C68.3333 6.78125 69.9844 7.30729 71.2031 8.35938C72.4323 9.40104 73.0469 10.8698 73.0469 12.7656V20.0938C73.0573 21.6979 73.2812 22.9115 73.7188 23.7344V24H69.1562ZM65.4219 20.8594C66.0885 20.8594 66.7031 20.7135 67.2656 20.4219C67.8281 20.1198 68.2448 19.7188 68.5156 19.2188V16.3125H66.8281C64.5677 16.3125 63.3646 17.0938 63.2188 18.6562L63.2031 18.9219C63.2031 19.4844 63.401 19.9479 63.7969 20.3125C64.1927 20.6771 64.7344 20.8594 65.4219 20.8594ZM76.8125 15.4219C76.8125 12.7865 77.401 10.6875 78.5781 9.125C79.7656 7.5625 81.3854 6.78125 83.4375 6.78125C85.0833 6.78125 86.4427 7.39583 87.5156 8.625V0H92.0469V24H87.9688L87.75 22.2031C86.625 23.6094 85.1771 24.3125 83.4062 24.3125C81.4167 24.3125 79.8177 23.5312 78.6094 21.9688C77.4115 20.3958 76.8125 18.2135 76.8125 15.4219ZM81.3281 15.75C81.3281 17.3333 81.6042 18.5469 82.1562 19.3906C82.7083 20.2344 83.5104 20.6562 84.5625 20.6562C85.9583 20.6562 86.9427 20.0677 87.5156 18.8906V12.2188C86.9531 11.0417 85.9792 10.4531 84.5938 10.4531C82.4167 10.4531 81.3281 12.2188 81.3281 15.75ZM106.047 11.3281C105.432 11.2448 104.891 11.2031 104.422 11.2031C102.714 11.2031 101.594 11.7812 101.062 12.9375V24H96.5469V7.09375H100.812L100.938 9.10938C101.844 7.55729 103.099 6.78125 104.703 6.78125C105.203 6.78125 105.672 6.84896 106.109 6.98438L106.047 11.3281ZM114 24H109.469V7.09375H114V24ZM109.203 2.71875C109.203 2.04167 109.427 1.48438 109.875 1.04688C110.333 0.609375 110.953 0.390625 111.734 0.390625C112.505 0.390625 113.12 0.609375 113.578 1.04688C114.036 1.48438 114.266 2.04167 114.266 2.71875C114.266 3.40625 114.031 3.96875 113.562 4.40625C113.104 4.84375 112.495 5.0625 111.734 5.0625C110.974 5.0625 110.359 4.84375 109.891 4.40625C109.432 3.96875 109.203 3.40625 109.203 2.71875ZM128.531 24C128.323 23.5938 128.172 23.0885 128.078 22.4844C126.984 23.7031 125.562 24.3125 123.812 24.3125C122.156 24.3125 120.781 23.8333 119.688 22.875C118.604 21.9167 118.062 20.7083 118.062 19.25C118.062 17.4583 118.724 16.0833 120.047 15.125C121.38 14.1667 123.302 13.6823 125.812 13.6719H127.891V12.7031C127.891 11.9219 127.688 11.2969 127.281 10.8281C126.885 10.3594 126.255 10.125 125.391 10.125C124.63 10.125 124.031 10.3073 123.594 10.6719C123.167 11.0365 122.953 11.5365 122.953 12.1719H118.438C118.438 11.1927 118.74 10.2865 119.344 9.45312C119.948 8.61979 120.802 7.96875 121.906 7.5C123.01 7.02083 124.25 6.78125 125.625 6.78125C127.708 6.78125 129.359 7.30729 130.578 8.35938C131.807 9.40104 132.422 10.8698 132.422 12.7656V20.0938C132.432 21.6979 132.656 22.9115 133.094 23.7344V24H128.531ZM124.797 20.8594C125.464 20.8594 126.078 20.7135 126.641 20.4219C127.203 20.1198 127.62 19.7188 127.891 19.2188V16.3125H126.203C123.943 16.3125 122.74 17.0938 122.594 18.6562L122.578 18.9219C122.578 19.4844 122.776 19.9479 123.172 20.3125C123.568 20.6771 124.109 20.8594 124.797 20.8594ZM141.047 7.09375L141.188 9.04688C142.396 7.53646 144.016 6.78125 146.047 6.78125C147.839 6.78125 149.172 7.30729 150.047 8.35938C150.922 9.41146 151.37 10.9844 151.391 13.0781V24H146.875V13.1875C146.875 12.2292 146.667 11.5365 146.25 11.1094C145.833 10.6719 145.141 10.4531 144.172 10.4531C142.901 10.4531 141.948 10.9948 141.312 12.0781V24H136.797V7.09375H141.047Z" fill="#5ED8FA"/>
</svg>
