<svg width="500" height="500" viewBox="0 0 500 500" fill="none" xmlns="http://www.w3.org/2000/svg">
<rect width="500" height="500" fill="#5ED8FA"/>
<path d="M277.039 102.625H335.633V299.5C335.633 317.599 331.596 333.615 323.523 347.547C315.581 361.349 304.318 372.026 289.734 379.578C275.151 387.13 258.68 390.906 240.32 390.906C210.242 390.906 186.805 383.289 170.008 368.055C153.211 352.69 144.812 331.01 144.812 303.016H203.797C203.797 316.948 206.727 327.234 212.586 333.875C218.445 340.516 227.69 343.836 240.32 343.836C251.518 343.836 260.438 339.995 267.078 332.312C273.719 324.63 277.039 313.693 277.039 299.5V102.625Z" fill="white"/>
</svg>
